<mxfile host="app.diagrams.net" agent="Mozilla/5.0 (Windows NT 10.0; Win64; x64) AppleWebKit/537.36 (KHTML, like Gecko) Chrome/133.0.0.0 Safari/537.36 OPR/118.0.0.0" version="27.1.1">
  <diagram id="R2lEEEUBdFMjLlhIrx00" name="Page-1">
    <mxGraphModel dx="2087" dy="1650" grid="1" gridSize="10" guides="1" tooltips="1" connect="1" arrows="0" fold="1" page="1" pageScale="1" pageWidth="850" pageHeight="1100" background="none" math="0" shadow="0" adaptiveColors="auto" extFonts="Permanent Marker^https://fonts.googleapis.com/css?family=Permanent+Marker">
      <root>
        <mxCell id="0" />
        <mxCell id="1" parent="0" />
        <mxCell id="tR2loHIzGu9E6lj55BgS-1" value="Es_admin" style="ellipse;whiteSpace=wrap;html=1;align=center;fillColor=#6a00ff;fontColor=#ffffff;strokeColor=#3700CC;" parent="1" vertex="1">
          <mxGeometry x="220" y="-80" width="100" height="40" as="geometry" />
        </mxCell>
        <mxCell id="tR2loHIzGu9E6lj55BgS-6" style="edgeStyle=orthogonalEdgeStyle;rounded=0;orthogonalLoop=1;jettySize=auto;html=1;entryX=1;entryY=0.5;entryDx=0;entryDy=0;" parent="1" source="tR2loHIzGu9E6lj55BgS-2" target="tR2loHIzGu9E6lj55BgS-3" edge="1">
          <mxGeometry relative="1" as="geometry">
            <Array as="points">
              <mxPoint x="400" y="70" />
            </Array>
          </mxGeometry>
        </mxCell>
        <mxCell id="tR2loHIzGu9E6lj55BgS-14" style="edgeStyle=orthogonalEdgeStyle;rounded=0;orthogonalLoop=1;jettySize=auto;html=1;entryX=0;entryY=0.5;entryDx=0;entryDy=0;" parent="1" target="tR2loHIzGu9E6lj55BgS-13" edge="1">
          <mxGeometry relative="1" as="geometry">
            <mxPoint x="415" y="180" as="sourcePoint" />
            <mxPoint x="425" y="380" as="targetPoint" />
            <Array as="points">
              <mxPoint x="415" y="380" />
            </Array>
          </mxGeometry>
        </mxCell>
        <mxCell id="tR2loHIzGu9E6lj55BgS-108" style="edgeStyle=orthogonalEdgeStyle;rounded=0;orthogonalLoop=1;jettySize=auto;html=1;exitX=1;exitY=0.5;exitDx=0;exitDy=0;entryX=0.5;entryY=1;entryDx=0;entryDy=0;fillColor=#6a00ff;strokeColor=#3700CC;" parent="1" source="tR2loHIzGu9E6lj55BgS-2" target="tR2loHIzGu9E6lj55BgS-18" edge="1">
          <mxGeometry relative="1" as="geometry" />
        </mxCell>
        <mxCell id="tR2loHIzGu9E6lj55BgS-111" style="edgeStyle=orthogonalEdgeStyle;rounded=0;orthogonalLoop=1;jettySize=auto;html=1;exitX=1;exitY=0.5;exitDx=0;exitDy=0;entryX=0.5;entryY=1;entryDx=0;entryDy=0;fillColor=#6a00ff;strokeColor=#3700CC;" parent="1" source="tR2loHIzGu9E6lj55BgS-2" target="tR2loHIzGu9E6lj55BgS-17" edge="1">
          <mxGeometry relative="1" as="geometry" />
        </mxCell>
        <mxCell id="tR2loHIzGu9E6lj55BgS-112" style="edgeStyle=orthogonalEdgeStyle;rounded=0;orthogonalLoop=1;jettySize=auto;html=1;exitX=1;exitY=0.5;exitDx=0;exitDy=0;entryX=0.5;entryY=1;entryDx=0;entryDy=0;fillColor=#6a00ff;strokeColor=#3700CC;" parent="1" source="tR2loHIzGu9E6lj55BgS-2" target="tR2loHIzGu9E6lj55BgS-16" edge="1">
          <mxGeometry relative="1" as="geometry" />
        </mxCell>
        <mxCell id="tR2loHIzGu9E6lj55BgS-115" style="edgeStyle=orthogonalEdgeStyle;rounded=0;orthogonalLoop=1;jettySize=auto;html=1;exitX=1;exitY=0.5;exitDx=0;exitDy=0;entryX=0.5;entryY=0;entryDx=0;entryDy=0;fillColor=#6a00ff;strokeColor=#3700CC;" parent="1" source="tR2loHIzGu9E6lj55BgS-2" target="tR2loHIzGu9E6lj55BgS-107" edge="1">
          <mxGeometry relative="1" as="geometry" />
        </mxCell>
        <mxCell id="tR2loHIzGu9E6lj55BgS-116" style="edgeStyle=orthogonalEdgeStyle;rounded=0;orthogonalLoop=1;jettySize=auto;html=1;exitX=1;exitY=0.5;exitDx=0;exitDy=0;entryX=0.5;entryY=0;entryDx=0;entryDy=0;fillColor=#6a00ff;strokeColor=#3700CC;" parent="1" source="tR2loHIzGu9E6lj55BgS-2" target="tR2loHIzGu9E6lj55BgS-110" edge="1">
          <mxGeometry relative="1" as="geometry" />
        </mxCell>
        <mxCell id="tR2loHIzGu9E6lj55BgS-117" style="edgeStyle=orthogonalEdgeStyle;rounded=0;orthogonalLoop=1;jettySize=auto;html=1;exitX=1;exitY=0.5;exitDx=0;exitDy=0;entryX=0.5;entryY=0;entryDx=0;entryDy=0;fillColor=#6a00ff;strokeColor=#3700CC;" parent="1" source="tR2loHIzGu9E6lj55BgS-2" target="tR2loHIzGu9E6lj55BgS-106" edge="1">
          <mxGeometry relative="1" as="geometry" />
        </mxCell>
        <mxCell id="abkp07mJg5SfTFEaOPfv-42" style="edgeStyle=orthogonalEdgeStyle;rounded=0;orthogonalLoop=1;jettySize=auto;html=1;entryX=1;entryY=0.5;entryDx=0;entryDy=0;" parent="1" source="tR2loHIzGu9E6lj55BgS-2" target="abkp07mJg5SfTFEaOPfv-41" edge="1">
          <mxGeometry relative="1" as="geometry">
            <Array as="points">
              <mxPoint x="390" y="238" />
            </Array>
          </mxGeometry>
        </mxCell>
        <mxCell id="JEdeJho3grTINQXdywMm-2" style="edgeStyle=orthogonalEdgeStyle;rounded=0;orthogonalLoop=1;jettySize=auto;html=1;exitX=1;exitY=0.5;exitDx=0;exitDy=0;entryX=0;entryY=0.5;entryDx=0;entryDy=0;" edge="1" parent="1" source="tR2loHIzGu9E6lj55BgS-2" target="JEdeJho3grTINQXdywMm-1">
          <mxGeometry relative="1" as="geometry" />
        </mxCell>
        <mxCell id="tR2loHIzGu9E6lj55BgS-2" value="USUARIOS" style="rounded=1;arcSize=10;whiteSpace=wrap;html=1;align=center;fillColor=#ffcc99;strokeColor=#36393d;" parent="1" vertex="1">
          <mxGeometry x="350" y="140" width="100" height="40" as="geometry" />
        </mxCell>
        <mxCell id="tR2loHIzGu9E6lj55BgS-7" style="edgeStyle=orthogonalEdgeStyle;rounded=0;orthogonalLoop=1;jettySize=auto;html=1;entryX=0;entryY=0.5;entryDx=0;entryDy=0;" parent="1" source="tR2loHIzGu9E6lj55BgS-3" target="tR2loHIzGu9E6lj55BgS-2" edge="1">
          <mxGeometry relative="1" as="geometry">
            <Array as="points">
              <mxPoint x="270" y="160" />
            </Array>
          </mxGeometry>
        </mxCell>
        <mxCell id="tR2loHIzGu9E6lj55BgS-8" style="edgeStyle=orthogonalEdgeStyle;rounded=0;orthogonalLoop=1;jettySize=auto;html=1;entryX=0.5;entryY=1;entryDx=0;entryDy=0;" parent="1" source="tR2loHIzGu9E6lj55BgS-3" target="tR2loHIzGu9E6lj55BgS-1" edge="1">
          <mxGeometry relative="1" as="geometry" />
        </mxCell>
        <mxCell id="tR2loHIzGu9E6lj55BgS-3" value="PUEDEN" style="shape=rhombus;perimeter=rhombusPerimeter;whiteSpace=wrap;html=1;align=center;fillColor=#60a917;fontColor=#ffffff;strokeColor=#2D7600;" parent="1" vertex="1">
          <mxGeometry x="210" y="40" width="120" height="60" as="geometry" />
        </mxCell>
        <mxCell id="abkp07mJg5SfTFEaOPfv-32" style="edgeStyle=orthogonalEdgeStyle;rounded=0;orthogonalLoop=1;jettySize=auto;html=1;exitX=1;exitY=0.5;exitDx=0;exitDy=0;entryX=0;entryY=0.5;entryDx=0;entryDy=0;" parent="1" source="tR2loHIzGu9E6lj55BgS-4" target="tR2loHIzGu9E6lj55BgS-10" edge="1">
          <mxGeometry relative="1" as="geometry" />
        </mxCell>
        <mxCell id="abkp07mJg5SfTFEaOPfv-35" style="edgeStyle=orthogonalEdgeStyle;rounded=0;orthogonalLoop=1;jettySize=auto;html=1;exitX=0;exitY=0.5;exitDx=0;exitDy=0;entryX=1;entryY=0.5;entryDx=0;entryDy=0;" parent="1" source="tR2loHIzGu9E6lj55BgS-4" target="abkp07mJg5SfTFEaOPfv-33" edge="1">
          <mxGeometry relative="1" as="geometry" />
        </mxCell>
        <mxCell id="abkp07mJg5SfTFEaOPfv-36" style="edgeStyle=orthogonalEdgeStyle;rounded=0;orthogonalLoop=1;jettySize=auto;html=1;exitX=0;exitY=0.5;exitDx=0;exitDy=0;entryX=1;entryY=0.5;entryDx=0;entryDy=0;" parent="1" source="tR2loHIzGu9E6lj55BgS-4" target="abkp07mJg5SfTFEaOPfv-34" edge="1">
          <mxGeometry relative="1" as="geometry" />
        </mxCell>
        <mxCell id="tR2loHIzGu9E6lj55BgS-4" value="MÁQUINAS" style="rounded=1;arcSize=10;whiteSpace=wrap;html=1;align=center;fillColor=#ffcc99;strokeColor=#36393d;" parent="1" vertex="1">
          <mxGeometry x="50" y="410" width="100" height="40" as="geometry" />
        </mxCell>
        <mxCell id="abkp07mJg5SfTFEaOPfv-4" style="edgeStyle=orthogonalEdgeStyle;rounded=0;orthogonalLoop=1;jettySize=auto;html=1;exitX=1;exitY=0.5;exitDx=0;exitDy=0;entryX=0.5;entryY=0;entryDx=0;entryDy=0;" parent="1" source="tR2loHIzGu9E6lj55BgS-5" target="abkp07mJg5SfTFEaOPfv-2" edge="1">
          <mxGeometry relative="1" as="geometry" />
        </mxCell>
        <mxCell id="abkp07mJg5SfTFEaOPfv-5" style="edgeStyle=orthogonalEdgeStyle;rounded=0;orthogonalLoop=1;jettySize=auto;html=1;exitX=1;exitY=0.5;exitDx=0;exitDy=0;entryX=0.5;entryY=1;entryDx=0;entryDy=0;" parent="1" source="tR2loHIzGu9E6lj55BgS-5" target="tR2loHIzGu9E6lj55BgS-118" edge="1">
          <mxGeometry relative="1" as="geometry" />
        </mxCell>
        <mxCell id="abkp07mJg5SfTFEaOPfv-13" style="edgeStyle=orthogonalEdgeStyle;rounded=0;orthogonalLoop=1;jettySize=auto;html=1;exitX=0.5;exitY=1;exitDx=0;exitDy=0;entryX=0.5;entryY=0;entryDx=0;entryDy=0;" parent="1" source="tR2loHIzGu9E6lj55BgS-5" target="abkp07mJg5SfTFEaOPfv-11" edge="1">
          <mxGeometry relative="1" as="geometry" />
        </mxCell>
        <mxCell id="tR2loHIzGu9E6lj55BgS-5" value="AVERIAS" style="rounded=1;arcSize=10;whiteSpace=wrap;html=1;align=center;fillColor=#ffcc99;strokeColor=#36393d;" parent="1" vertex="1">
          <mxGeometry x="640" y="400" width="100" height="40" as="geometry" />
        </mxCell>
        <mxCell id="abkp07mJg5SfTFEaOPfv-21" style="edgeStyle=orthogonalEdgeStyle;rounded=0;orthogonalLoop=1;jettySize=auto;html=1;exitX=0.5;exitY=0;exitDx=0;exitDy=0;entryX=0.5;entryY=1;entryDx=0;entryDy=0;" parent="1" source="tR2loHIzGu9E6lj55BgS-10" target="abkp07mJg5SfTFEaOPfv-19" edge="1">
          <mxGeometry relative="1" as="geometry" />
        </mxCell>
        <mxCell id="tR2loHIzGu9E6lj55BgS-10" value="TIENEN" style="shape=rhombus;perimeter=rhombusPerimeter;whiteSpace=wrap;html=1;align=center;fillColor=#60a917;fontColor=#ffffff;strokeColor=#2D7600;" parent="1" vertex="1">
          <mxGeometry x="240" y="350" width="120" height="60" as="geometry" />
        </mxCell>
        <mxCell id="tR2loHIzGu9E6lj55BgS-15" style="edgeStyle=orthogonalEdgeStyle;rounded=0;orthogonalLoop=1;jettySize=auto;html=1;exitX=1;exitY=0.5;exitDx=0;exitDy=0;entryX=0;entryY=0.5;entryDx=0;entryDy=0;" parent="1" source="tR2loHIzGu9E6lj55BgS-13" target="tR2loHIzGu9E6lj55BgS-5" edge="1">
          <mxGeometry relative="1" as="geometry" />
        </mxCell>
        <mxCell id="tR2loHIzGu9E6lj55BgS-13" value="REGISTRAN" style="shape=rhombus;perimeter=rhombusPerimeter;whiteSpace=wrap;html=1;align=center;fillColor=#60a917;fontColor=#ffffff;strokeColor=#2D7600;" parent="1" vertex="1">
          <mxGeometry x="450" y="350" width="120" height="60" as="geometry" />
        </mxCell>
        <mxCell id="tR2loHIzGu9E6lj55BgS-16" value="Nombre_Bar" style="ellipse;whiteSpace=wrap;html=1;align=center;fillColor=#6a00ff;fontColor=#ffffff;strokeColor=#3700CC;" parent="1" vertex="1">
          <mxGeometry x="600" y="80" width="100" height="40" as="geometry" />
        </mxCell>
        <mxCell id="tR2loHIzGu9E6lj55BgS-17" value="Nombre" style="ellipse;whiteSpace=wrap;html=1;align=center;fillColor=#6a00ff;fontColor=#ffffff;strokeColor=#3700CC;" parent="1" vertex="1">
          <mxGeometry x="520" y="50" width="100" height="40" as="geometry" />
        </mxCell>
        <mxCell id="tR2loHIzGu9E6lj55BgS-18" value="&lt;u&gt;ID&lt;/u&gt;" style="ellipse;whiteSpace=wrap;html=1;align=center;fillColor=#6a00ff;fontColor=#ffffff;strokeColor=#3700CC;" parent="1" vertex="1">
          <mxGeometry x="450" y="20" width="100" height="40" as="geometry" />
        </mxCell>
        <mxCell id="tR2loHIzGu9E6lj55BgS-106" value="Dirección" style="ellipse;whiteSpace=wrap;html=1;align=center;fillColor=#6a00ff;fontColor=#ffffff;strokeColor=#3700CC;" parent="1" vertex="1">
          <mxGeometry x="600" y="190" width="100" height="40" as="geometry" />
        </mxCell>
        <mxCell id="tR2loHIzGu9E6lj55BgS-107" value="Contraseña" style="ellipse;whiteSpace=wrap;html=1;align=center;fillColor=#6a00ff;fontColor=#ffffff;strokeColor=#3700CC;" parent="1" vertex="1">
          <mxGeometry x="450" y="250" width="100" height="40" as="geometry" />
        </mxCell>
        <mxCell id="tR2loHIzGu9E6lj55BgS-110" value="Teléfono" style="ellipse;whiteSpace=wrap;html=1;align=center;fillColor=#6a00ff;fontColor=#ffffff;strokeColor=#3700CC;" parent="1" vertex="1">
          <mxGeometry x="520" y="220" width="100" height="40" as="geometry" />
        </mxCell>
        <mxCell id="tR2loHIzGu9E6lj55BgS-113" style="edgeStyle=orthogonalEdgeStyle;rounded=0;orthogonalLoop=1;jettySize=auto;html=1;exitX=0.5;exitY=1;exitDx=0;exitDy=0;fillColor=#6a00ff;strokeColor=#3700CC;" parent="1" source="tR2loHIzGu9E6lj55BgS-17" target="tR2loHIzGu9E6lj55BgS-17" edge="1">
          <mxGeometry relative="1" as="geometry" />
        </mxCell>
        <mxCell id="tR2loHIzGu9E6lj55BgS-118" value="&lt;u&gt;ID&lt;/u&gt;" style="ellipse;whiteSpace=wrap;html=1;align=center;fillColor=#6a00ff;fontColor=#ffffff;strokeColor=#3700CC;" parent="1" vertex="1">
          <mxGeometry x="800" y="330" width="100" height="40" as="geometry" />
        </mxCell>
        <mxCell id="abkp07mJg5SfTFEaOPfv-2" value="Descripción" style="ellipse;whiteSpace=wrap;html=1;align=center;fillColor=#6a00ff;fontColor=#ffffff;strokeColor=#3700CC;" parent="1" vertex="1">
          <mxGeometry x="800" y="470" width="100" height="40" as="geometry" />
        </mxCell>
        <mxCell id="abkp07mJg5SfTFEaOPfv-11" value="TIENEN" style="shape=rhombus;perimeter=rhombusPerimeter;whiteSpace=wrap;html=1;align=center;fillColor=#60a917;fontColor=#ffffff;strokeColor=#2D7600;" parent="1" vertex="1">
          <mxGeometry x="630" y="510" width="120" height="60" as="geometry" />
        </mxCell>
        <mxCell id="abkp07mJg5SfTFEaOPfv-14" style="edgeStyle=orthogonalEdgeStyle;rounded=0;orthogonalLoop=1;jettySize=auto;html=1;exitX=0.5;exitY=0;exitDx=0;exitDy=0;entryX=0.5;entryY=1;entryDx=0;entryDy=0;" parent="1" source="abkp07mJg5SfTFEaOPfv-12" target="abkp07mJg5SfTFEaOPfv-11" edge="1">
          <mxGeometry relative="1" as="geometry" />
        </mxCell>
        <mxCell id="abkp07mJg5SfTFEaOPfv-17" style="edgeStyle=orthogonalEdgeStyle;rounded=0;orthogonalLoop=1;jettySize=auto;html=1;" parent="1" source="abkp07mJg5SfTFEaOPfv-12" target="abkp07mJg5SfTFEaOPfv-15" edge="1">
          <mxGeometry relative="1" as="geometry" />
        </mxCell>
        <mxCell id="abkp07mJg5SfTFEaOPfv-18" style="edgeStyle=orthogonalEdgeStyle;rounded=0;orthogonalLoop=1;jettySize=auto;html=1;exitX=0.5;exitY=1;exitDx=0;exitDy=0;entryX=0.5;entryY=0;entryDx=0;entryDy=0;" parent="1" source="abkp07mJg5SfTFEaOPfv-12" target="abkp07mJg5SfTFEaOPfv-16" edge="1">
          <mxGeometry relative="1" as="geometry" />
        </mxCell>
        <mxCell id="abkp07mJg5SfTFEaOPfv-12" value="TIPO_AVERIAS" style="rounded=1;arcSize=10;whiteSpace=wrap;html=1;align=center;fillColor=#ffcc99;strokeColor=#36393d;" parent="1" vertex="1">
          <mxGeometry x="475" y="660" width="120" height="50" as="geometry" />
        </mxCell>
        <mxCell id="abkp07mJg5SfTFEaOPfv-15" value="&lt;u&gt;ID&lt;/u&gt;" style="ellipse;whiteSpace=wrap;html=1;align=center;fillColor=#6a00ff;fontColor=#ffffff;strokeColor=#3700CC;" parent="1" vertex="1">
          <mxGeometry x="405" y="780" width="100" height="40" as="geometry" />
        </mxCell>
        <mxCell id="abkp07mJg5SfTFEaOPfv-16" value="Nombre_tipo" style="ellipse;whiteSpace=wrap;html=1;align=center;fillColor=#6a00ff;fontColor=#ffffff;strokeColor=#3700CC;" parent="1" vertex="1">
          <mxGeometry x="565" y="780" width="100" height="40" as="geometry" />
        </mxCell>
        <mxCell id="abkp07mJg5SfTFEaOPfv-24" style="edgeStyle=orthogonalEdgeStyle;rounded=0;orthogonalLoop=1;jettySize=auto;html=1;exitX=0;exitY=0.5;exitDx=0;exitDy=0;entryX=1;entryY=0.5;entryDx=0;entryDy=0;" parent="1" source="abkp07mJg5SfTFEaOPfv-19" target="abkp07mJg5SfTFEaOPfv-22" edge="1">
          <mxGeometry relative="1" as="geometry" />
        </mxCell>
        <mxCell id="abkp07mJg5SfTFEaOPfv-25" style="edgeStyle=orthogonalEdgeStyle;rounded=0;orthogonalLoop=1;jettySize=auto;html=1;exitX=0;exitY=0.5;exitDx=0;exitDy=0;entryX=1;entryY=0.5;entryDx=0;entryDy=0;" parent="1" source="abkp07mJg5SfTFEaOPfv-19" target="abkp07mJg5SfTFEaOPfv-23" edge="1">
          <mxGeometry relative="1" as="geometry" />
        </mxCell>
        <mxCell id="abkp07mJg5SfTFEaOPfv-43" style="edgeStyle=orthogonalEdgeStyle;rounded=0;orthogonalLoop=1;jettySize=auto;html=1;exitX=1;exitY=0.5;exitDx=0;exitDy=0;entryX=0;entryY=0.5;entryDx=0;entryDy=0;" parent="1" source="abkp07mJg5SfTFEaOPfv-19" target="abkp07mJg5SfTFEaOPfv-41" edge="1">
          <mxGeometry relative="1" as="geometry" />
        </mxCell>
        <mxCell id="abkp07mJg5SfTFEaOPfv-19" value="PROPIETARIOS" style="rounded=1;arcSize=10;whiteSpace=wrap;html=1;align=center;fillColor=#ffcc99;strokeColor=#36393d;" parent="1" vertex="1">
          <mxGeometry x="70" y="218" width="100" height="40" as="geometry" />
        </mxCell>
        <mxCell id="abkp07mJg5SfTFEaOPfv-22" value="&lt;u&gt;ID_USUARIO&lt;/u&gt;" style="ellipse;whiteSpace=wrap;html=1;align=center;fillColor=#6a00ff;fontColor=#ffffff;strokeColor=#3700CC;" parent="1" vertex="1">
          <mxGeometry x="-110" y="178" width="100" height="40" as="geometry" />
        </mxCell>
        <mxCell id="abkp07mJg5SfTFEaOPfv-23" value="&lt;u&gt;ID_MAQUINA&lt;/u&gt;" style="ellipse;whiteSpace=wrap;html=1;align=center;fillColor=#6a00ff;fontColor=#ffffff;strokeColor=#3700CC;" parent="1" vertex="1">
          <mxGeometry x="-110" y="248" width="100" height="40" as="geometry" />
        </mxCell>
        <mxCell id="abkp07mJg5SfTFEaOPfv-26" style="edgeStyle=orthogonalEdgeStyle;rounded=0;orthogonalLoop=1;jettySize=auto;html=1;" parent="1" source="abkp07mJg5SfTFEaOPfv-28" target="abkp07mJg5SfTFEaOPfv-29" edge="1">
          <mxGeometry relative="1" as="geometry" />
        </mxCell>
        <mxCell id="abkp07mJg5SfTFEaOPfv-27" style="edgeStyle=orthogonalEdgeStyle;rounded=0;orthogonalLoop=1;jettySize=auto;html=1;exitX=0.5;exitY=1;exitDx=0;exitDy=0;entryX=0.5;entryY=0;entryDx=0;entryDy=0;" parent="1" source="abkp07mJg5SfTFEaOPfv-28" target="abkp07mJg5SfTFEaOPfv-30" edge="1">
          <mxGeometry relative="1" as="geometry" />
        </mxCell>
        <mxCell id="abkp07mJg5SfTFEaOPfv-31" style="edgeStyle=orthogonalEdgeStyle;rounded=0;orthogonalLoop=1;jettySize=auto;html=1;exitX=0.5;exitY=0;exitDx=0;exitDy=0;entryX=0.5;entryY=1;entryDx=0;entryDy=0;" parent="1" source="abkp07mJg5SfTFEaOPfv-28" target="abkp07mJg5SfTFEaOPfv-11" edge="1">
          <mxGeometry relative="1" as="geometry" />
        </mxCell>
        <mxCell id="abkp07mJg5SfTFEaOPfv-28" value="ESTADO_AVERIAS" style="rounded=1;arcSize=10;whiteSpace=wrap;html=1;align=center;fillColor=#ffcc99;strokeColor=#36393d;" parent="1" vertex="1">
          <mxGeometry x="785" y="660" width="120" height="50" as="geometry" />
        </mxCell>
        <mxCell id="abkp07mJg5SfTFEaOPfv-29" value="&lt;u&gt;ID&lt;/u&gt;" style="ellipse;whiteSpace=wrap;html=1;align=center;fillColor=#6a00ff;fontColor=#ffffff;strokeColor=#3700CC;" parent="1" vertex="1">
          <mxGeometry x="715" y="780" width="100" height="40" as="geometry" />
        </mxCell>
        <mxCell id="abkp07mJg5SfTFEaOPfv-30" value="Nombre_estado" style="ellipse;whiteSpace=wrap;html=1;align=center;fillColor=#6a00ff;fontColor=#ffffff;strokeColor=#3700CC;" parent="1" vertex="1">
          <mxGeometry x="875" y="780" width="100" height="40" as="geometry" />
        </mxCell>
        <mxCell id="abkp07mJg5SfTFEaOPfv-33" value="&lt;u&gt;ID&lt;/u&gt;" style="ellipse;whiteSpace=wrap;html=1;align=center;fillColor=#6a00ff;fontColor=#ffffff;strokeColor=#3700CC;" parent="1" vertex="1">
          <mxGeometry x="-150" y="370" width="100" height="40" as="geometry" />
        </mxCell>
        <mxCell id="abkp07mJg5SfTFEaOPfv-34" value="Nombre" style="ellipse;whiteSpace=wrap;html=1;align=center;fillColor=#6a00ff;fontColor=#ffffff;strokeColor=#3700CC;" parent="1" vertex="1">
          <mxGeometry x="-150" y="450" width="100" height="40" as="geometry" />
        </mxCell>
        <mxCell id="abkp07mJg5SfTFEaOPfv-37" value="1:N" style="text;html=1;align=center;verticalAlign=middle;resizable=0;points=[];autosize=1;strokeColor=none;fillColor=none;" parent="1" vertex="1">
          <mxGeometry x="300" y="80" width="40" height="30" as="geometry" />
        </mxCell>
        <mxCell id="abkp07mJg5SfTFEaOPfv-41" value="SON" style="shape=rhombus;perimeter=rhombusPerimeter;whiteSpace=wrap;html=1;align=center;fillColor=#60a917;fontColor=#ffffff;strokeColor=#2D7600;" parent="1" vertex="1">
          <mxGeometry x="230" y="208" width="120" height="60" as="geometry" />
        </mxCell>
        <mxCell id="abkp07mJg5SfTFEaOPfv-44" value="1:1" style="text;html=1;align=center;verticalAlign=middle;resizable=0;points=[];autosize=1;strokeColor=none;fillColor=none;" parent="1" vertex="1">
          <mxGeometry x="270" y="178" width="40" height="30" as="geometry" />
        </mxCell>
        <mxCell id="abkp07mJg5SfTFEaOPfv-45" value="0:1" style="text;html=1;align=center;verticalAlign=middle;resizable=0;points=[];autosize=1;strokeColor=none;fillColor=none;" parent="1" vertex="1">
          <mxGeometry x="170" y="208" width="40" height="30" as="geometry" />
        </mxCell>
        <mxCell id="abkp07mJg5SfTFEaOPfv-46" value="1:1" style="text;html=1;align=center;verticalAlign=middle;resizable=0;points=[];autosize=1;strokeColor=none;fillColor=none;" parent="1" vertex="1">
          <mxGeometry x="350" y="178" width="40" height="30" as="geometry" />
        </mxCell>
        <mxCell id="abkp07mJg5SfTFEaOPfv-47" value="0:1" style="text;html=1;align=center;verticalAlign=middle;resizable=0;points=[];autosize=1;strokeColor=none;fillColor=none;" parent="1" vertex="1">
          <mxGeometry x="130" y="258" width="40" height="30" as="geometry" />
        </mxCell>
        <mxCell id="abkp07mJg5SfTFEaOPfv-48" value="1:N" style="text;html=1;align=center;verticalAlign=middle;resizable=0;points=[];autosize=1;strokeColor=none;fillColor=none;" parent="1" vertex="1">
          <mxGeometry x="150" y="438" width="40" height="30" as="geometry" />
        </mxCell>
        <mxCell id="abkp07mJg5SfTFEaOPfv-49" value="1:N" style="text;html=1;align=center;verticalAlign=middle;resizable=0;points=[];autosize=1;strokeColor=none;fillColor=none;" parent="1" vertex="1">
          <mxGeometry x="280" y="408" width="40" height="30" as="geometry" />
        </mxCell>
        <mxCell id="abkp07mJg5SfTFEaOPfv-50" value="0:N" style="text;html=1;align=center;verticalAlign=middle;resizable=0;points=[];autosize=1;strokeColor=none;fillColor=none;" parent="1" vertex="1">
          <mxGeometry x="610" y="370" width="40" height="30" as="geometry" />
        </mxCell>
        <mxCell id="abkp07mJg5SfTFEaOPfv-51" value="1:1" style="text;html=1;align=center;verticalAlign=middle;resizable=0;points=[];autosize=1;" parent="1" vertex="1">
          <mxGeometry x="410" y="188" width="40" height="30" as="geometry" />
        </mxCell>
        <mxCell id="abkp07mJg5SfTFEaOPfv-52" value="N:1" style="text;html=1;align=center;verticalAlign=middle;resizable=0;points=[];autosize=1;strokeColor=none;fillColor=none;" parent="1" vertex="1">
          <mxGeometry x="480" y="408" width="40" height="30" as="geometry" />
        </mxCell>
        <mxCell id="abkp07mJg5SfTFEaOPfv-53" value="1:1" style="text;html=1;align=center;verticalAlign=middle;resizable=0;points=[];autosize=1;strokeColor=none;fillColor=none;" parent="1" vertex="1">
          <mxGeometry x="850" y="628" width="40" height="30" as="geometry" />
        </mxCell>
        <mxCell id="abkp07mJg5SfTFEaOPfv-54" value="1:1" style="text;html=1;align=center;verticalAlign=middle;resizable=0;points=[];autosize=1;strokeColor=none;fillColor=none;" parent="1" vertex="1">
          <mxGeometry x="530" y="618" width="40" height="30" as="geometry" />
        </mxCell>
        <mxCell id="abkp07mJg5SfTFEaOPfv-55" value="0:N" style="text;html=1;align=center;verticalAlign=middle;resizable=0;points=[];autosize=1;strokeColor=none;fillColor=none;" parent="1" vertex="1">
          <mxGeometry x="700" y="448" width="40" height="30" as="geometry" />
        </mxCell>
        <mxCell id="abkp07mJg5SfTFEaOPfv-56" value="0:N" style="text;html=1;align=center;verticalAlign=middle;resizable=0;points=[];autosize=1;strokeColor=none;fillColor=none;" parent="1" vertex="1">
          <mxGeometry x="625" y="448" width="40" height="30" as="geometry" />
        </mxCell>
        <mxCell id="abkp07mJg5SfTFEaOPfv-57" value="1:N" style="text;html=1;align=center;verticalAlign=middle;resizable=0;points=[];autosize=1;strokeColor=none;fillColor=none;" parent="1" vertex="1">
          <mxGeometry x="585" y="525" width="40" height="30" as="geometry" />
        </mxCell>
        <mxCell id="abkp07mJg5SfTFEaOPfv-58" value="1:N" style="text;html=1;align=center;verticalAlign=middle;resizable=0;points=[];autosize=1;strokeColor=none;fillColor=none;" parent="1" vertex="1">
          <mxGeometry x="760" y="525" width="40" height="30" as="geometry" />
        </mxCell>
        <mxCell id="poJYhNJ_kuBQOQ-Zqler-1" value="1:N" style="text;html=1;align=center;verticalAlign=middle;resizable=0;points=[];autosize=1;strokeColor=none;fillColor=none;" parent="1" vertex="1">
          <mxGeometry x="400" y="110" width="40" height="30" as="geometry" />
        </mxCell>
        <mxCell id="poJYhNJ_kuBQOQ-Zqler-2" value="1:1" style="text;html=1;align=center;verticalAlign=middle;resizable=0;points=[];autosize=1;strokeColor=none;fillColor=none;" parent="1" vertex="1">
          <mxGeometry x="220" y="98" width="40" height="30" as="geometry" />
        </mxCell>
        <mxCell id="JEdeJho3grTINQXdywMm-1" value="&lt;u&gt;ID_Cliente&lt;/u&gt;" style="ellipse;whiteSpace=wrap;html=1;align=center;fillColor=#6a00ff;fontColor=#ffffff;strokeColor=#3700CC;" vertex="1" parent="1">
          <mxGeometry x="710" y="140" width="100" height="40" as="geometry" />
        </mxCell>
      </root>
    </mxGraphModel>
  </diagram>
</mxfile>
